<svg width="103" height="30" viewBox="0 0 103 30" fill="none" xmlns="http://www.w3.org/2000/svg">
<path d="M39.5487 20.8593L44.6724 6.06697H47.2589L40.6079 24H38.5141L31.8754 6.06697H34.4496L39.5487 20.8593ZM54.304 24.2463C52.4975 24.2463 51.0278 23.6551 49.8946 22.4727C48.7615 21.2821 48.1949 19.6933 48.1949 17.7062V17.2874C48.1949 15.9654 48.4454 14.7872 48.9463 13.7526C49.4553 12.7097 50.1615 11.8968 51.0647 11.3139C51.9761 10.7227 52.9615 10.4271 54.0207 10.4271C55.7532 10.4271 57.0999 10.9977 58.0606 12.1391C59.0213 13.2804 59.5016 14.9144 59.5016 17.0411V17.9895H50.4735C50.5064 19.3033 50.8882 20.3666 51.619 21.1795C52.358 21.9842 53.294 22.3865 54.4272 22.3865C55.2318 22.3865 55.9134 22.2223 56.4717 21.8939C57.0301 21.5654 57.5186 21.1302 57.9374 20.5883L59.3292 21.6722C58.2125 23.3883 56.5374 24.2463 54.304 24.2463ZM54.0207 12.2992C53.1011 12.2992 52.3292 12.6358 51.7052 13.3092C51.0811 13.9743 50.6952 14.9103 50.5474 16.1173H57.223V15.9449C57.1573 14.7872 56.8453 13.8921 56.287 13.2599C55.7286 12.6194 54.9732 12.2992 54.0207 12.2992ZM68.5913 12.718C68.2464 12.6605 67.8728 12.6317 67.4705 12.6317C65.9761 12.6317 64.962 13.2681 64.4283 14.5408V24H62.1497V10.6734H64.3667L64.4036 12.213C65.1508 11.0224 66.2101 10.4271 67.5813 10.4271C68.0247 10.4271 68.3614 10.4845 68.5913 10.5995V12.718ZM75.7965 22.3865C76.6094 22.3865 77.3197 22.1402 77.9273 21.6475C78.5349 21.1549 78.8716 20.539 78.9373 19.8H81.0927C81.0516 20.5637 80.7889 21.2903 80.3044 21.9801C79.82 22.6698 79.1713 23.2199 78.3584 23.6305C77.5537 24.0411 76.6998 24.2463 75.7965 24.2463C73.9819 24.2463 72.5367 23.6428 71.4611 22.4358C70.3936 21.2205 69.8599 19.5619 69.8599 17.4599V17.078C69.8599 15.7807 70.098 14.627 70.5743 13.6171C71.0505 12.6071 71.732 11.8229 72.6188 11.2646C73.5138 10.7062 74.569 10.4271 75.7842 10.4271C77.2786 10.4271 78.5185 10.8746 79.5038 11.7696C80.4974 12.6646 81.027 13.8265 81.0927 15.2552H78.9373C78.8716 14.393 78.5431 13.6869 77.9519 13.1367C77.369 12.5784 76.6464 12.2992 75.7842 12.2992C74.6265 12.2992 73.7273 12.718 73.0869 13.5555C72.4546 14.3848 72.1385 15.5877 72.1385 17.1643V17.5953C72.1385 19.1308 72.4546 20.3132 73.0869 21.1425C73.7191 21.9719 74.6223 22.3865 75.7965 22.3865ZM89.1847 24.2463C87.3783 24.2463 85.9085 23.6551 84.7754 22.4727C83.6422 21.2821 83.0757 19.6933 83.0757 17.7062V17.2874C83.0757 15.9654 83.3261 14.7872 83.827 13.7526C84.3361 12.7097 85.0422 11.8968 85.9454 11.3139C86.8569 10.7227 87.8422 10.4271 88.9014 10.4271C90.634 10.4271 91.9806 10.9977 92.9413 12.1391C93.902 13.2804 94.3823 14.9144 94.3823 17.0411V17.9895H85.3542C85.3871 19.3033 85.7689 20.3666 86.4997 21.1795C87.2387 21.9842 88.1748 22.3865 89.3079 22.3865C90.1126 22.3865 90.7941 22.2223 91.3525 21.8939C91.9108 21.5654 92.3994 21.1302 92.8181 20.5883L94.2099 21.6722C93.0932 23.3883 91.4181 24.2463 89.1847 24.2463ZM88.9014 12.2992C87.9818 12.2992 87.21 12.6358 86.5859 13.3092C85.9619 13.9743 85.5759 14.9103 85.4281 16.1173H92.1038V15.9449C92.0381 14.7872 91.7261 13.8921 91.1677 13.2599C90.6093 12.6194 89.8539 12.2992 88.9014 12.2992ZM99.5061 24H97.2275V5.08164H99.5061V24Z" fill="black"/>
<path d="M15.7653 4.20386L29.4185 23.1222H2.11215L15.7653 4.20386Z" fill="black"/>
</svg>
