<svg width="697" height="282" viewBox="0 0 697 282" fill="none" xmlns="http://www.w3.org/2000/svg">
<path d="M0.302734 20C0.302734 8.9543 9.25704 0 20.3027 0H676.303C687.348 0 696.303 8.95431 696.303 20V282H0.302734V20Z" fill="#FEC8D7"/>
<mask id="mask0" mask-type="alpha" maskUnits="userSpaceOnUse" x="0" y="0" width="697" height="282">
<path d="M0.302734 20C0.302734 8.9543 9.25704 0 20.3027 0H676.303C687.348 0 696.303 8.95431 696.303 20V282H0.302734V20Z" fill="#FFC6D3"/>
</mask>
<g mask="url(#mask0)">
<path d="M571.252 188.455L571.252 186.455L571.247 186.455L571.252 188.455ZM616.185 247.217C616.967 247.996 618.234 247.993 619.013 247.21L631.712 234.454C632.492 233.671 632.489 232.405 631.706 231.625C630.923 230.846 629.657 230.849 628.877 231.632L617.589 242.971L606.25 231.683C605.467 230.903 604.201 230.906 603.422 231.689C602.642 232.472 602.645 233.738 603.428 234.517L616.185 247.217ZM772.717 186.455L571.252 186.455L571.252 190.455L772.717 190.455L772.717 186.455ZM571.315 216.352L592.819 216.304L592.81 212.304L571.306 212.352L571.315 216.352ZM592.819 216.304C598.747 216.291 603.022 217.36 606.127 219.045C609.208 220.717 611.259 223.06 612.651 225.825C615.509 231.503 615.58 238.881 615.596 245.804L619.596 245.795C619.581 239.104 619.586 230.706 616.224 224.026C614.505 220.612 611.908 217.631 608.035 215.529C604.188 213.441 599.207 212.29 592.81 212.304L592.819 216.304ZM556.332 201.437C556.351 209.693 563.059 216.371 571.315 216.352L571.306 212.352C565.259 212.366 560.346 207.475 560.332 201.428L556.332 201.437ZM571.247 186.455C562.991 186.474 556.314 193.182 556.332 201.437L560.332 201.428C560.319 195.382 565.21 190.469 571.256 190.455L571.247 186.455Z" fill="#5257F5"/>
<rect x="307.603" y="95.3" width="66.2693" height="20.199" rx="2.7" fill="black" stroke="black" stroke-width="1.4" stroke-linecap="round" stroke-linejoin="round"/>
<path d="M390.627 128.079L389.98 128.346L390.627 128.079L383.872 111.712C383.687 111.264 383.244 110.972 382.754 110.989C382.264 111.006 381.842 111.326 381.687 111.786L379.678 117.758C379.549 118.141 379.249 118.442 378.867 118.573L372.958 120.599C372.496 120.758 372.185 121.186 372.168 121.67C372.152 122.153 372.434 122.601 372.884 122.79L389.096 129.609C389.536 129.794 390.042 129.692 390.376 129.354C390.709 129.018 390.807 128.515 390.627 128.079Z" fill="black" stroke="black" stroke-width="1.4" stroke-linecap="round" stroke-linejoin="round"/>
<path d="M104.439 72.5909C104.439 93.2727 76.3709 111 76.3709 111C76.3709 111 48.3027 93.2727 48.3027 72.5909C48.3027 65.5386 51.2599 58.7751 56.5237 53.7883C61.7875 48.8015 68.9268 46 76.3709 46C83.8151 46 90.9543 48.8015 96.2181 53.7883C101.482 58.7751 104.439 65.5386 104.439 72.5909Z" fill="#FBFBFB" stroke="black" stroke-width="4" stroke-linecap="round" stroke-linejoin="round"/>
<path d="M76.3678 81.4558C81.535 81.4558 85.7239 77.4874 85.7239 72.5921C85.7239 67.6969 81.535 63.7285 76.3678 63.7285C71.2006 63.7285 67.0117 67.6969 67.0117 72.5921C67.0117 77.4874 71.2006 81.4558 76.3678 81.4558Z" fill="black"/>
<circle cx="681.289" cy="60.2755" r="42.6754" transform="rotate(92.7925 681.289 60.2755)" fill="#5BC083" stroke="black" stroke-width="3"/>
<circle cx="666.504" cy="65.293" r="42.6754" transform="rotate(92.7925 666.504 65.293)" fill="#5BC083" stroke="black" stroke-width="3"/>
<circle cx="652.364" cy="70.2657" r="42.6754" transform="rotate(92.7925 652.364 70.2657)" fill="#5BC083" stroke="black" stroke-width="3"/>
<circle cx="634.971" cy="76.8419" r="42.6754" transform="rotate(92.7925 634.971 76.8419)" fill="#5BC083" stroke="black" stroke-width="3"/>
<circle cx="617.727" cy="83.7247" r="42.6754" transform="rotate(92.7925 617.727 83.7247)" fill="#5BC083" stroke="black" stroke-width="3"/>
<circle cx="580.432" cy="83.8492" r="21.6285" transform="rotate(90 580.432 83.8492)" fill="white" stroke="black" stroke-width="3"/>
<path d="M580.037 62.7051V94.7546" stroke="black" stroke-width="3" stroke-linecap="round" stroke-linejoin="round"/>
<path d="M589.156 85.5039L580.03 94.7553L570.904 85.5039" stroke="black" stroke-width="3" stroke-linecap="round" stroke-linejoin="round"/>
<path d="M448.651 82.4087L447.215 77.6468L445.779 82.4087L395.473 249.215L394.89 251.148H396.909H497.521H499.54L498.957 249.215L448.651 82.4087Z" fill="black" stroke="black" stroke-width="3"/>
<path d="M431.827 69.5669L430.391 64.805L428.955 69.5669L378.649 236.373L378.066 238.306H380.085H480.697H482.716L482.133 236.373L431.827 69.5669Z" fill="#5BC083" stroke="black" stroke-width="3"/>
<path d="M407.22 130.461C410.861 130.46 413.89 133.513 413.891 137.375C413.893 141.238 410.866 144.293 407.225 144.294C403.584 144.295 400.555 141.242 400.554 137.38C400.552 133.518 403.579 130.463 407.22 130.461Z" fill="white" stroke="black" stroke-width="3"/>
</g>
</svg>