<svg width="52" height="52" viewBox="0 0 52 52" fill="none" xmlns="http://www.w3.org/2000/svg">
<rect x="1" y="1" width="50" height="50" rx="25" fill="#FFE000" stroke="#773EEE"/>
<path fill-rule="evenodd" clip-rule="evenodd" d="M26.3772 11C26.6995 10.9992 26.9816 11.1704 27.1344 11.426L36.7037 26.8019C36.8823 27.0888 36.8759 27.452 36.6873 27.7327L32.4613 34.0233C32.4382 34.0578 32.4629 34.1041 32.5045 34.104V34.104C32.9884 34.1029 33.3816 34.4892 33.3827 34.9669L33.3952 40.1043C33.3963 40.582 33.005 40.9702 32.5211 40.9713L20.3786 41C19.8948 41.0011 19.5016 40.6148 19.5004 40.1371L19.488 34.9997C19.4868 34.522 19.8781 34.1339 20.362 34.1327V34.1327C20.4035 34.1326 20.4281 34.0861 20.4048 34.0517L16.1483 27.7812C15.9584 27.5015 15.9503 27.1383 16.1275 26.8505L25.6221 11.4296C25.7736 11.1733 26.0549 11.0008 26.3772 11ZM24.1149 24.9026C24.8187 24.2371 25.5312 23.4344 25.5289 22.4658V22.4658C25.5236 20.3103 22.6956 19.5132 21.5655 21.3487L19.0957 25.36C18.3774 26.5266 18.4103 28.0062 19.1798 29.1397L20.4683 31.038C21.7797 32.9698 23.9648 34.1242 26.2996 34.1187L26.5669 34.1181C28.9017 34.1126 31.0813 32.9477 32.3833 31.0097L33.6624 29.1056C34.4264 27.9684 34.4522 26.4887 33.7283 25.3255L31.2389 21.3256C30.1001 19.4957 27.2759 20.3064 27.2811 22.4618V22.4618C27.2835 23.4304 27.9997 24.2295 28.7067 24.8915C28.7264 24.9099 28.7459 24.9287 28.7652 24.9477C30.0685 26.2281 30.0735 28.3092 28.7765 29.5958C27.4794 30.8824 25.3715 30.8874 24.0682 29.6069C22.7649 28.3264 22.7599 26.2454 24.0569 24.9588C24.0761 24.9398 24.0954 24.9211 24.1149 24.9026ZM26.3955 25.7205C25.9978 25.7258 25.6017 25.8787 25.2989 26.179C24.6845 26.7885 24.6869 27.7742 25.3042 28.3808C25.9216 28.9873 26.9201 28.985 27.5345 28.3755C28.1489 27.7661 28.1465 26.7803 27.5292 26.1738C27.2249 25.8748 26.8281 25.7238 26.4303 25.7205C26.4245 25.7206 26.4187 25.7207 26.4129 25.7207C26.4071 25.7207 26.4013 25.7206 26.3955 25.7205ZM30.7778 35.838L30.774 35.838L22.1008 35.8585H22.0969V35.8585C21.6249 35.8596 21.2432 36.2431 21.2444 36.7151L21.2464 37.5644C21.2487 38.5053 22.0133 39.2663 22.9542 39.264L29.9369 39.2475C30.8779 39.2453 31.639 38.4807 31.6367 37.5396L31.6346 36.6907C31.6335 36.2186 31.2499 35.8369 30.7778 35.838V35.838Z" fill="#773EEE"/>
</svg>
