<svg width="52" height="52" viewBox="0 0 52 52" fill="none" xmlns="http://www.w3.org/2000/svg">
<rect x="1" y="1" width="50" height="50" rx="25" fill="#FFE000" stroke="#17BF63"/>
<path d="M34.8418 18.5409V33.4589L30.5181 37.4843H22.1732L17.8496 33.4589V18.5409L22.1732 14.5156H30.5181L34.8418 18.5409Z" fill="#20DF83"/>
<path d="M33.6699 18.5409V33.4589L29.6445 37.4843H25.7598V14.5156H29.6445L33.6699 18.5409Z" fill="#B6FFCF"/>
<path d="M31.6659 12.7578L30.5057 14.9902L29.2753 15.3945H22.244L21.3651 15.1132L19.7129 12.2305L20.0995 11.1055C20.2225 11.0351 20.3455 11 20.4862 11H31.0331C31.1738 11 31.2968 11.0351 31.4197 11.1055L31.6659 12.7578Z" fill="#B6FFCF"/>
<path d="M37.0838 16.7634L35.0707 16.3555L33.3952 17.4266L32.791 18.9098V33.0895L33.1481 34.243L35.7848 35.479L37.0838 35.2358C37.1444 35.1149 37.1855 34.9854 37.1855 34.8473V17.152C37.1855 17.0139 37.1444 16.8843 37.0838 16.7634Z" fill="#5BC083"/>
<path d="M18.5637 17.7568L16.4489 16.6855L14.4357 16.7639C14.3752 16.8848 14.334 17.0144 14.334 17.1525V34.8478C14.334 34.9859 14.3752 35.1154 14.4357 35.2362L15.9544 35.6168L17.9045 34.7104L18.7285 33.0899V18.9103L18.5637 17.7568Z" fill="#5BC083"/>
<path d="M31.7187 39.3301L31.4198 40.8945C31.2969 40.9648 31.1739 41 31.0331 41H20.4863C20.3455 41 20.2225 40.9648 20.0996 40.8945L19.6602 39.0488L20.6446 37.0976L22.2441 36.6055H29.2753L30.4529 36.8164L31.7187 39.3301Z" fill="#B6FFCF"/>
<path d="M29.2754 15.3945H25.7598V11H31.0332C31.1739 11 31.2969 11.0351 31.4199 11.1055L31.6659 12.7578L30.5057 14.9902L29.2754 15.3945Z" fill="#0ACF83"/>
<path d="M31.7187 39.3301L31.4198 40.8945C31.2969 40.9648 31.1739 41 31.0332 41H25.7598V36.6055H29.2754L30.453 36.8164L31.7187 39.3301Z" fill="#0ACF83"/>
<path d="M22.244 15.3942L21.3651 13.6364L20.0976 11.1016C20.0141 11.1434 19.9322 11.1899 19.8648 11.2572L14.5913 16.5307C14.524 16.5981 14.4776 16.6799 14.4355 16.7635L18.7284 18.9099L22.244 15.3942Z" fill="#009861"/>
<path d="M22.244 36.6055L18.7284 33.0898L14.4355 35.2361C14.4776 35.3197 14.524 35.4017 14.5913 35.469L19.8648 40.7425C19.9322 40.8098 20.0141 40.8563 20.0976 40.8981L21.3651 38.3633L22.244 36.6055Z" fill="#009861"/>
<path d="M29.2754 15.3942L32.791 18.9099L37.0838 16.7635C37.0417 16.6799 36.9954 16.5981 36.928 16.5307L31.6546 11.2572C31.5872 11.1899 31.5052 11.1434 31.4216 11.1016L30.1543 13.6364L29.2754 15.3942Z" fill="#009861"/>
<path d="M36.928 35.469C36.9954 35.4017 37.0417 35.3197 37.0838 35.2361L32.791 33.0898L29.2754 36.6055L30.1543 38.3633L31.4218 40.8981C31.5053 40.8563 31.5872 40.8098 31.6546 40.7425L36.928 35.469Z" fill="#009861"/>
</svg>

