<svg width="52" height="52" viewBox="0 0 52 52" fill="none" xmlns="http://www.w3.org/2000/svg">
<rect x="1" y="1" width="50" height="50" rx="25" fill="#FFE000" stroke="black"/>
<path fill-rule="evenodd" clip-rule="evenodd" d="M37.1672 12.875H14.8328C13.7743 12.8687 12.9047 13.7091 12.875 14.7672V37.1563C12.8989 38.2169 13.772 39.0607 14.8328 39.0485H37.1672C38.228 39.0607 39.1011 38.2169 39.125 37.1563V14.7672C39.0953 13.7091 38.2257 12.8687 37.1672 12.875ZM20.6516 35.1985H16.8016V22.7188H20.6516V35.1985ZM18.7703 20.9797C17.541 20.9801 16.5359 19.9994 16.5063 18.7704C16.4846 18.1635 16.7162 17.575 17.1456 17.1456C17.5749 16.7162 18.1635 16.4847 18.7703 16.5063C19.9568 16.5889 20.8771 17.5755 20.8771 18.7649C20.8771 19.9543 19.9568 20.9409 18.7703 21.0235V20.9797ZM35.275 35.1219H31.4688V29.0188C31.4688 27.5641 31.4688 25.6719 29.4344 25.6719C27.4 25.6719 27.0938 27.2688 27.0938 28.8766V35.0563H23.2V22.7188H26.8313V24.3594H26.9078C27.6665 23.0418 29.0967 22.2571 30.6156 22.3251C34.5422 22.3251 35.275 24.9501 35.275 28.286V35.1219Z" fill="#3A6B8E"/>
</svg>

