<svg width="241" height="218" viewBox="0 0 241 218" fill="none" xmlns="http://www.w3.org/2000/svg">
<path d="M184.361 26.2129C187.708 26.2251 190.28 29.0405 190.039 32.3789C188.072 59.5393 177.782 169.176 139.063 183.412C94.8186 199.679 45.4999 176.28 28.9066 131.148C12.3134 86.0163 42.2402 56.6723 86.4847 40.4053C122.235 27.2611 168.078 26.1537 184.361 26.2129Z" fill="#FFC6D3" stroke="#292929" stroke-width="2"/>
<circle cx="191.244" cy="27.4509" r="4.44597" transform="rotate(-100.377 191.244 27.4509)" fill="white" stroke="#292929" stroke-width="2"/>
<circle cx="91.6154" cy="38.5408" r="4.44597" transform="rotate(-100.377 91.6154 38.5408)" fill="white" stroke="#292929" stroke-width="2"/>
<circle cx="26.7619" cy="128.67" r="4.44597" transform="rotate(-100.377 26.7619 128.67)" fill="white" stroke="#292929" stroke-width="2"/>
<circle cx="142.369" cy="182.767" r="4.44597" transform="rotate(-100.377 142.369 182.767)" fill="white" stroke="#292929" stroke-width="2"/>
<line x1="21.9865" y1="62.0513" x2="161.443" y2="15.5658" stroke="#292929" stroke-width="2"/>
<rect x="157.303" y="14.0156" width="6" height="6" transform="rotate(-19.622 157.303 14.0156)" fill="white" stroke="#292929" stroke-width="2"/>
<rect x="16.3027" y="61.0156" width="6" height="6" transform="rotate(-19.622 16.3027 61.0156)" fill="white" stroke="#292929" stroke-width="2"/>
</svg>
