<svg width="52" height="52" viewBox="0 0 52 52" fill="none" xmlns="http://www.w3.org/2000/svg">
<rect x="1" y="1" width="50" height="50" rx="25" fill="#FFE000" stroke="black"/>
<path fill-rule="evenodd" clip-rule="evenodd" d="M26.0007 10.6875C18.6793 10.7374 12.4175 15.9631 11.0585 23.1575C9.6996 30.3519 13.6238 37.5017 20.4226 40.2187C20.201 38.7688 20.201 37.2937 20.4226 35.8437L22.2273 28.1875C21.9417 27.4941 21.8002 26.7498 21.8116 26C21.8116 23.8781 23.0476 22.2812 24.5788 22.2812C25.1402 22.2728 25.6772 22.5098 26.0493 22.9303C26.4214 23.3507 26.5914 23.9126 26.5148 24.4687C26.5148 25.7812 25.6835 27.75 25.246 29.5656C25.0549 30.2528 25.2108 30.99 25.6638 31.5409C26.1167 32.0919 26.8099 32.3874 27.521 32.3328C30.2335 32.3328 32.3335 29.4562 32.3335 25.3219C32.3887 23.6232 31.7266 21.9796 30.5092 20.7935C29.2919 19.6075 27.6318 18.9883 25.9351 19.0875C24.1246 19.0097 22.3613 19.6766 21.0554 20.9329C19.7495 22.1892 19.0149 23.9254 19.0226 25.7375C19.0104 26.9867 19.3932 28.2078 20.1163 29.2266C20.2231 29.3452 20.2641 29.5091 20.2257 29.6641C20.1054 30.1453 19.8429 31.1953 19.7991 31.4031C19.7554 31.6109 19.5694 31.7422 19.2851 31.6109C17.371 30.7141 16.1788 27.925 16.1788 25.6719C16.1788 20.8484 19.6898 16.4078 26.296 16.4078C31.6007 16.4078 35.7351 20.1922 35.7351 25.2562C35.7351 30.5281 32.4538 34.7719 27.7835 34.7719C26.3925 34.8203 25.0713 34.1618 24.2726 33.0219L23.321 36.6641C22.8649 38.0795 22.225 39.4291 21.4179 40.6781C22.9051 41.1177 24.45 41.3315 26.0007 41.3125C34.4576 41.3125 41.3132 34.4569 41.3132 26C41.3132 17.5431 34.4576 10.6875 26.0007 10.6875" fill="#FB212F"/>
</svg>
