<svg width="52" height="52" viewBox="0 0 52 52" fill="none" xmlns="http://www.w3.org/2000/svg">
<rect x="1" y="1" width="50" height="50" rx="25" fill="#FFE000" stroke="#FF4F59"/>
<path fill-rule="evenodd" clip-rule="evenodd" d="M8.5 18.3762L14.2595 12.666H37.7405L43.5 18.3742L26.001 39.3327L8.5 18.3762ZM15.6377 24.4692L18.7134 28.2041C20.4009 26.6057 24.3686 26.974 25.6032 29.153C25.8403 29.1567 26.0748 29.1611 26.3064 29.1655L26.406 29.1674C29.4748 29.2258 32.0114 29.2741 33.0503 27.9775C33.3693 27.5142 33.4658 27.0063 33.0385 26.6624C31.9746 25.9184 29.466 25.7724 26.1424 25.579C23.1486 25.4049 19.4935 25.1922 15.6377 24.4692ZM10.7386 18.519C10.6953 18.5291 15.0056 14.2561 15.0056 14.2561H17.0889C14.9623 16.0042 13.4717 18.4138 12.8179 21.046L10.7386 18.519ZM21.7379 31.6759L25.999 36.7744L30.079 31.8944C28.0095 32.3921 25.7076 32.6389 21.7379 31.6759ZM33.5941 15.5875C33.1727 14.9765 32.5092 14.4019 32.267 14.2583H34.0726C34.112 14.936 33.793 15.373 33.5941 15.5875ZM37.2312 23.4737L41.262 18.5209L38.3398 15.5509V18.8932H32.3065C32.1707 15.7059 29.0723 14.3119 25.4321 14.3137C25.3798 14.3138 25.3274 14.3141 25.2749 14.3147C21.8684 14.3531 19.025 15.2352 18.7592 17.1836C18.4993 18.2842 19.6788 20.1395 26.8187 19.7672C26.8409 19.7667 26.8631 19.7662 26.8852 19.7658C32.5287 19.6478 35.9897 20.9304 37.2312 23.4737Z" fill="#FF4F59"/>
</svg>
