<svg width="52" height="52" viewBox="0 0 52 52" fill="none" xmlns="http://www.w3.org/2000/svg">
<rect x="1" y="1" width="50" height="50" rx="25" fill="#FFE000" stroke="#D138AF"/>
<path fill-rule="evenodd" clip-rule="evenodd" d="M21.5375 35.7776C25.2693 35.801 28.855 34.329 31.4938 31.6901C34.1327 29.0513 35.6047 25.4656 35.5813 21.7338V21.0885C36.5389 20.3868 37.3678 19.5246 38.0312 18.5401C37.1295 18.9345 36.1753 19.196 35.1984 19.3166C36.2341 18.6995 37.0112 17.7281 37.3859 16.5822C36.4207 17.1613 35.3623 17.5684 34.2578 17.7854C32.7286 16.1559 30.2964 15.7549 28.325 16.8072C26.3536 17.8594 25.3332 20.1033 25.8359 22.2807C21.8676 22.0859 18.1693 20.2129 15.6641 17.1291C14.3679 19.3787 15.0374 22.248 17.1953 23.6916C16.4282 23.662 15.6788 23.4522 15.0078 23.0791V23.1338C14.9938 25.4684 16.6113 27.496 18.8906 28.001C18.1771 28.1929 17.4297 28.2228 16.7031 28.0885C17.3593 30.0683 19.1898 31.4215 21.275 31.4682C19.5351 32.8688 17.3726 33.6397 15.1391 33.6557C14.7474 33.6444 14.3568 33.6115 13.9688 33.5572C16.2295 34.9976 18.8569 35.757 21.5375 35.7447" fill="#1EA5FC"/>
</svg>
