<svg width="52" height="52" viewBox="0 0 52 52" fill="none" xmlns="http://www.w3.org/2000/svg">
<rect x="1" y="1" width="50" height="50" rx="25" fill="#FFE000" stroke="#1A41A5"/>
<path fill-rule="evenodd" clip-rule="evenodd" d="M40.668 18.6281C40.3133 17.3105 39.2841 16.2812 37.9664 15.9266C35.5821 15.2812 26.0008 15.2812 26.0008 15.2812C26.0008 15.2812 16.4196 15.2812 14.0352 15.9266C12.7175 16.2812 11.6883 17.3105 11.3336 18.6281C10.8884 21.0598 10.6724 23.5279 10.6883 26C10.6724 28.4721 10.8884 30.9402 11.3336 33.3719C11.6883 34.6895 12.7175 35.7188 14.0352 36.0734C16.4196 36.7188 26.0008 36.7188 26.0008 36.7188C26.0008 36.7188 35.5821 36.7188 37.9664 36.0734C39.2841 35.7188 40.3133 34.6895 40.668 33.3719C41.1132 30.9402 41.3293 28.4721 41.3133 26C41.3293 23.5279 41.1132 21.0598 40.668 18.6281V18.6281ZM22.9383 30.5938V21.4062L30.8899 26L22.9383 30.5938Z" fill="#FD513B"/>
</svg>
